# xmcd CD database file
#
# Track frame offsets:
#	150
#	17947
#	31357
#	51407
#	64410
#	77532
#	98432
#	116410
#	134625
#	155977
#
# Disc length: 2322 seconds
#
# Revision: 3
# Processed by: cddbd v1.5.2PL0 Copyright (c) Steve Scherf et al.
# Submitted via: CDex 1.70beta3
#
DISCID=8809100a
DTITLE=The Willard - FUNNY FEARS
DYEAR=1993
DGENRE=Punk
TTITLE0=Horror Train
TTITLE1=Snowy White
TTITLE2=Pain Street
TTITLE3=Gun Slinger
TTITLE4=Early CHICAGO’S Nightmare
TTITLE5=Jack The Ripper
TTITLE6=Hell Darlin’
TTITLE7=13is my luckynumber
TTITLE8=Lorelei
TTITLE9=David James
EXTD=YEAR: 1993
EXTT0=
EXTT1=
EXTT2=
EXTT3=
EXTT4=
EXTT5=
EXTT6=
EXTT7=
EXTT8=
EXTT9=
PLAYORDER=
